<?xml version="1.0" encoding="UTF-8" standalone="no"?>
<svg width="52px" height="45px" viewBox="0 0 52 45" version="1.1" xmlns="http://www.w3.org/2000/svg" xmlns:xlink="http://www.w3.org/1999/xlink">
    <!-- Generator: Sketch 42 (36781) - http://www.bohemiancoding.com/sketch -->
    <title>M</title>
    <desc>Created with Sketch.</desc>
    <defs></defs>
    <g id="Page-1" stroke="none" stroke-width="1" fill="none" fill-rule="evenodd">
        <path d="M51.02,45 L51.02,33.712 L48.096,33.712 L48.096,12.224 L50.68,12.088 L50.68,0.936 L35.312,0.936 L25.86,17.528 L16.204,0.936 L0.428,0.936 L0.428,12.156 L3.352,12.156 L3.352,33.916 L0.564,34.052 L0.564,45 L17.088,45 L17.088,26.368 C17.5866692,27.1386705 18.0739976,27.8639966 18.55,28.544 C19.0260024,29.2240034 19.5133308,29.9493295 20.012,30.72 C20.4653356,31.4000034 20.9753305,32.1706624 21.542,33.032 C22.1086695,33.8933376 22.6753305,34.7659956 23.242,35.65 C23.8086695,36.5340044 24.3753305,37.4066624 24.942,38.268 C25.5086695,39.1293376 26.0186644,39.8999966 26.472,40.58 L34.564,26.3 L34.564,45 L51.02,45 Z" id="M" fill="#FBA958"></path>
    </g>
</svg>